<svg width="947" height="135" viewBox="0 0 947 135" fill="none" xmlns="http://www.w3.org/2000/svg">
<path d="M68.7246 47.0938H83.209V80.1875L110.35 47.0938H127.74L100.084 80.75L128.022 116H109.506L83.209 81.7344V116H68.7246V47.0938ZM150.568 105.828H167.303V95.375H151.553C148.428 95.375 146.272 95.7969 145.084 96.6406C143.897 97.4844 143.303 98.9531 143.303 101.047C143.303 102.828 143.772 104.078 144.709 104.797C145.678 105.484 147.631 105.828 150.568 105.828ZM132.803 65.4219H160.178C167.084 65.4219 172.287 67.0156 175.787 70.2031C179.287 73.3594 181.037 78.0625 181.037 84.3125V116H145.131C140.1 116 136.225 114.734 133.506 112.203C130.818 109.672 129.475 106.078 129.475 101.422C129.475 95.6719 131.022 91.5469 134.115 89.0469C137.24 86.5469 142.412 85.2969 149.631 85.2969H167.209V84.0312C167.209 81.0312 166.318 78.9219 164.537 77.7031C162.787 76.4844 159.647 75.875 155.115 75.875H132.803V65.4219ZM191.912 105.453H220.084C222.584 105.453 224.397 105.062 225.522 104.281C226.678 103.5 227.256 102.25 227.256 100.531C227.256 98.8125 226.678 97.5625 225.522 96.7812C224.365 95.9688 222.553 95.5625 220.084 95.5625H208.553C201.709 95.5625 197.084 94.5156 194.678 92.4219C192.272 90.3281 191.068 86.6094 191.068 81.2656C191.068 75.8281 192.522 71.8281 195.428 69.2656C198.334 66.7031 202.834 65.4219 208.928 65.4219H237.615V75.9688H214.037C210.193 75.9688 207.693 76.3125 206.537 77C205.381 77.6562 204.803 78.8438 204.803 80.5625C204.803 82.125 205.303 83.2812 206.303 84.0312C207.334 84.75 208.943 85.1094 211.131 85.1094H223.225C228.756 85.1094 232.975 86.4062 235.881 89C238.787 91.5625 240.24 95.2812 240.24 100.156C240.24 104.844 238.943 108.656 236.35 111.594C233.787 114.531 230.475 116 226.412 116H191.912V105.453ZM268.6 105.828H285.334V95.375H269.584C266.459 95.375 264.303 95.7969 263.115 96.6406C261.928 97.4844 261.334 98.9531 261.334 101.047C261.334 102.828 261.803 104.078 262.74 104.797C263.709 105.484 265.662 105.828 268.6 105.828ZM250.834 65.4219H278.209C285.115 65.4219 290.318 67.0156 293.818 70.2031C297.318 73.3594 299.068 78.0625 299.068 84.3125V116H263.162C258.131 116 254.256 114.734 251.537 112.203C248.85 109.672 247.506 106.078 247.506 101.422C247.506 95.6719 249.053 91.5469 252.147 89.0469C255.272 86.5469 260.443 85.2969 267.662 85.2969H285.24V84.0312C285.24 81.0312 284.35 78.9219 282.568 77.7031C280.818 76.4844 277.678 75.875 273.147 75.875H250.834V65.4219ZM305.068 65.4219H320.068L334.084 101.328L348.943 65.4219H363.334L340.881 116H326.49L305.068 65.4219ZM415.131 116H389.959C382.553 116 377.193 114.531 373.881 111.594C370.6 108.656 368.959 103.953 368.959 97.4844V65.4219H382.272V96.4062C382.272 99.7812 382.85 102.031 384.006 103.156C385.193 104.281 387.537 104.844 391.037 104.844H401.772V65.4219H415.131V116ZM489.334 103.285H510.252V90.2188H490.564C486.658 90.2188 483.963 90.7461 482.479 91.8008C480.994 92.8555 480.252 94.6914 480.252 97.3086C480.252 99.5352 480.838 101.098 482.01 101.996C483.221 102.855 485.662 103.285 489.334 103.285ZM467.127 52.7773H501.346C509.979 52.7773 516.482 54.7695 520.857 58.7539C525.232 62.6992 527.42 68.5781 527.42 76.3906V116H482.537C476.248 116 471.404 114.418 468.006 111.254C464.647 108.09 462.967 103.598 462.967 97.7773C462.967 90.5898 464.9 85.4336 468.768 82.3086C472.674 79.1836 479.139 77.6211 488.162 77.6211H510.135V76.0391C510.135 72.2891 509.022 69.6523 506.795 68.1289C504.607 66.6055 500.682 65.8438 495.018 65.8438H467.127V52.7773ZM559.365 105.828H576.1V95.375H560.35C557.225 95.375 555.068 95.7969 553.881 96.6406C552.693 97.4844 552.1 98.9531 552.1 101.047C552.1 102.828 552.568 104.078 553.506 104.797C554.475 105.484 556.428 105.828 559.365 105.828ZM541.6 65.4219H568.975C575.881 65.4219 581.084 67.0156 584.584 70.2031C588.084 73.3594 589.834 78.0625 589.834 84.3125V116H553.928C548.896 116 545.021 114.734 542.303 112.203C539.615 109.672 538.271 106.078 538.271 101.422C538.271 95.6719 539.818 91.5469 542.912 89.0469C546.037 86.5469 551.209 85.2969 558.428 85.2969H576.006V84.0312C576.006 81.0312 575.115 78.9219 573.334 77.7031C571.584 76.4844 568.443 75.875 563.912 75.875H541.6V65.4219ZM615.24 116H601.318V47.0938H615.24V116ZM645.521 105.828H662.256V95.375H646.506C643.381 95.375 641.225 95.7969 640.037 96.6406C638.85 97.4844 638.256 98.9531 638.256 101.047C638.256 102.828 638.725 104.078 639.662 104.797C640.631 105.484 642.584 105.828 645.521 105.828ZM627.756 65.4219H655.131C662.037 65.4219 667.24 67.0156 670.74 70.2031C674.24 73.3594 675.99 78.0625 675.99 84.3125V116H640.084C635.053 116 631.178 114.734 628.459 112.203C625.771 109.672 624.428 106.078 624.428 101.422C624.428 95.6719 625.975 91.5469 629.068 89.0469C632.193 86.5469 637.365 85.2969 644.584 85.2969H662.162V84.0312C662.162 81.0312 661.271 78.9219 659.49 77.7031C657.74 76.4844 654.6 75.875 650.068 75.875H627.756V65.4219ZM709.365 104.844H720.1V65.4219H733.459V114.641C733.459 121.328 731.896 126.281 728.771 129.5C725.646 132.719 720.865 134.328 714.428 134.328H688.225V124.062H712.131C714.693 124.062 716.662 123.438 718.037 122.188C719.412 120.969 720.1 119.188 720.1 116.844V116H708.287C700.725 116 695.334 114.516 692.115 111.547C688.896 108.547 687.287 103.562 687.287 96.5938V65.4219H700.506V95.5625C700.506 99.375 701.068 101.875 702.193 103.062C703.35 104.25 705.74 104.844 709.365 104.844ZM764.303 105.828H781.037V95.375H765.287C762.162 95.375 760.006 95.7969 758.818 96.6406C757.631 97.4844 757.037 98.9531 757.037 101.047C757.037 102.828 757.506 104.078 758.443 104.797C759.412 105.484 761.365 105.828 764.303 105.828ZM746.537 65.4219H773.912C780.818 65.4219 786.021 67.0156 789.521 70.2031C793.021 73.3594 794.771 78.0625 794.771 84.3125V116H758.865C753.834 116 749.959 114.734 747.24 112.203C744.553 109.672 743.209 106.078 743.209 101.422C743.209 95.6719 744.756 91.5469 747.85 89.0469C750.975 86.5469 756.146 85.2969 763.365 85.2969H780.943V84.0312C780.943 81.0312 780.053 78.9219 778.271 77.7031C776.521 76.4844 773.381 75.875 768.85 75.875H746.537V65.4219ZM806.443 65.4219H857.725C865.162 65.4219 870.521 66.875 873.803 69.7812C877.084 72.6875 878.725 77.4062 878.725 83.9375V116H865.271V85.6719C865.271 81.9531 864.709 79.5 863.584 78.3125C862.459 77.125 860.146 76.5312 856.646 76.5312H849.146V116H835.506V76.5312H819.896V116H806.443V65.4219Z" fill="black"/>
</svg>
